<svg width="559" height="1084" viewBox="0 0 559 1084" fill="none" xmlns="http://www.w3.org/2000/svg">
<path opacity="0.0212766" fill-rule="evenodd" clip-rule="evenodd" d="M133.497 649.847C147.716 662.405 203.164 709.36 198.716 706.282C194.229 703.176 160.307 675.584 111.288 634.474C53.9299 586.372 34.8714 569.204 -17.7173 524.772C-50.1201 497.395 -87.2837 466.626 -121.392 437.883C-168.499 398.187 -222.996 352.272 -246.906 331.637C-271.065 310.787 -273.375 307.986 -241.871 333.906C-208.633 361.253 -141.091 418.231 -94.02 457.424C-64.2338 482.226 -53.2196 490.921 -21.8512 517.104C11.5653 544.997 50.8848 578.001 80.9335 603.456C110.268 628.307 123.931 640.244 134.064 649.187C142.54 656.668 125.114 642.444 133.497 649.847Z" stroke="url(#paint0_linear_346_7141)"/>
<path opacity="0.0425532" fill-rule="evenodd" clip-rule="evenodd" d="M123.804 642.84C135.951 657.512 186.461 709.756 181.334 707.266C176.162 704.753 143.488 675.597 98.2043 630.404C45.218 577.525 29.4628 557.027 -18.6033 507.731C-48.2194 477.356 -83.1725 444.078 -114.465 412.291C-157.684 368.391 -207.696 317.626 -228.873 294.142C-250.269 270.412 -251.054 266.148 -221.169 293.955C-189.639 323.292 -127.768 386.389 -83.8434 429.086C-56.0483 456.106 -45.0277 464.922 -15.8565 493.535C15.2194 524.016 51.4966 560.338 78.8556 588.672C105.564 616.333 117.438 630.113 126.103 640.555C133.351 649.29 116.642 634.19 123.804 642.84Z" stroke="url(#paint1_linear_346_7141)"/>
<path opacity="0.0638298" fill-rule="evenodd" clip-rule="evenodd" d="M113.974 635.621C123.796 652.135 168.873 709.159 162.939 707.107C156.952 705.038 125.549 674.314 84.3404 625.378C36.1223 568.117 24.0927 544.747 -19.0066 491.04C-45.5624 457.948 -78.1456 422.307 -106.353 387.749C-145.31 340.022 -190.411 284.842 -208.545 258.834C-226.868 232.554 -225.899 227.081 -197.728 256.696C-168.007 287.941 -112.355 356.597 -71.833 402.552C-46.191 431.633 -35.1074 440.644 -8.31981 471.505C20.2168 504.381 53.1727 543.74 77.5716 574.676C101.391 604.876 111.263 620.272 118.28 632.02C124.15 641.848 108.184 625.885 113.974 635.621Z" stroke="url(#paint2_linear_346_7141)"/>
<path opacity="0.0851064" fill-rule="evenodd" clip-rule="evenodd" d="M104.058 628.152C111.334 646.209 150.535 707.459 143.685 705.68C136.774 703.886 106.678 671.586 69.8526 619.271C26.7634 558.057 18.8257 532.321 -18.9074 474.697C-42.1569 439.191 -72.2194 401.343 -97.0984 364.312C-131.459 313.169 -171.26 254.045 -186.08 225.87C-201.054 197.401 -198.138 191.001 -171.775 222.342C-143.961 255.408 -95.0232 329.016 -58.1414 377.965C-34.8027 408.94 -23.6126 418.228 0.619868 451.141C26.4346 486.202 55.8158 528.298 77.0124 561.531C97.7054 593.975 105.39 610.738 110.604 623.581C114.965 634.324 99.769 617.507 104.058 628.152Z" stroke="url(#paint3_linear_346_7141)"/>
<path opacity="0.106383" fill-rule="evenodd" clip-rule="evenodd" d="M94.1099 620.406C98.6532 639.681 131.59 704.563 123.74 702.876C115.821 701.174 87.0783 667.283 54.912 611.981C17.2741 547.273 13.734 519.716 -18.2821 458.705C-38.009 421.112 -65.4086 381.22 -86.7442 342.034C-116.211 287.914 -150.37 225.352 -161.644 195.396C-173.036 165.127 -168.015 158.105 -143.552 191.088C-117.744 225.885 -75.9565 303.795 -42.9318 355.455C-22.0338 388.145 -10.7085 397.803 10.8133 432.558C33.7403 469.582 59.321 514.09 77.1035 549.297C94.4636 583.667 99.8044 601.529 103.083 615.237C105.825 626.704 91.4315 609.043 94.1099 620.406Z" stroke="url(#paint4_linear_346_7141)"/>
<path opacity="0.12766" fill-rule="evenodd" clip-rule="evenodd" d="M84.1879 612.36C85.8504 632.51 112.194 700.394 103.285 698.606C94.2977 696.801 66.9693 661.304 39.7025 603.429C7.79762 535.709 8.8959 506.912 -17.1041 443.074C-33.1242 403.739 -57.7279 361.977 -75.3354 320.973C-99.6528 264.341 -127.878 198.876 -135.416 167.546C-143.032 135.89 -135.787 128.572 -113.318 163.107C-89.6133 199.542 -55.3492 281.065 -26.3776 335.138C-8.04455 369.356 3.42918 379.483 22.1017 415.859C41.9934 454.611 63.5768 501.188 77.766 538.024C91.6181 573.984 94.4881 592.661 95.7261 606.99C96.7617 618.978 83.2078 600.481 84.1879 612.36Z" stroke="url(#paint5_linear_346_7141)"/>
<path opacity="0.148936" fill-rule="evenodd" clip-rule="evenodd" d="M74.3539 604.001C73.0269 624.666 92.5106 694.895 82.5106 692.803C72.4219 690.693 46.5813 653.571 24.4182 593.556C-1.51504 523.332 4.39395 493.901 -15.3453 427.822C-27.5077 387.107 -49.192 343.656 -62.9185 301.185C-81.876 242.529 -103.922 174.72 -107.579 142.444C-111.274 109.832 -101.728 102.558 -81.3442 138.552C-59.8392 176.526 -33.4059 260.942 -8.66129 317.118C6.99701 352.666 18.6158 363.364 34.3182 401.131C51.0458 441.363 68.466 489.652 78.9167 527.757C89.1191 564.957 89.424 584.149 88.5444 598.847C87.8086 611.142 75.1363 591.819 74.3539 604.001Z" stroke="url(#paint6_linear_346_7141)"/>
<path opacity="0.170213" fill-rule="evenodd" clip-rule="evenodd" d="M64.672 595.325C60.2876 616.134 72.71 688.026 61.6133 685.423C50.4182 682.797 26.1537 644.036 9.25998 582.33C-10.5074 510.127 0.313552 480.689 -12.9767 412.975C-21.1655 371.254 -39.8171 326.303 -49.543 282.731C-62.9752 222.555 -78.6521 152.981 -78.3285 120.2C-78.0015 87.0779 -66.1192 80.1978 -47.9122 117.553C-28.7035 156.964 -10.3399 243.527 10.0273 301.481C22.9155 338.154 34.659 349.529 47.2889 388.446C60.7435 429.904 73.8665 479.533 80.4691 518.535C86.9149 556.609 84.5934 576.011 81.5482 590.813C79.0008 603.197 67.2568 583.058 64.672 595.325Z" stroke="url(#paint7_linear_346_7141)"/>
<path opacity="0.191489" fill-rule="evenodd" clip-rule="evenodd" d="M55.2075 586.336C47.7402 606.91 52.9662 679.767 40.7958 676.444C28.5174 673.091 5.93158 632.678 -5.56627 569.742C-19.0199 496.102 -3.25865 467.292 -9.97002 398.568C-14.1053 356.223 -29.6213 309.968 -35.2609 265.67C-43.0497 204.491 -52.2204 133.748 -47.865 100.913C-43.4642 67.7356 -29.2552 61.6048 -13.3148 100.218C3.50271 140.956 13.6282 228.9 29.4916 288.299C39.5299 325.886 51.36 338.043 60.8344 377.863C70.9274 420.282 79.6524 470.87 82.3339 510.386C84.9516 548.963 79.9771 568.26 74.748 582.9C70.3736 595.148 59.6098 574.207 55.2075 586.336Z" stroke="url(#paint8_linear_346_7141)"/>
<path opacity="0.212766" fill-rule="evenodd" clip-rule="evenodd" d="M46.0258 577.047C35.4928 597.005 33.4555 670.118 20.2627 665.866C6.95286 661.576 -13.8375 619.507 -19.8533 555.813C-26.8925 481.285 -6.23667 453.745 -6.29885 384.642C-6.33716 342.063 -18.6257 294.707 -20.1285 250.064C-22.2039 188.408 -24.7867 117.102 -16.3966 84.6671C-7.91905 51.8942 8.56304 46.8683 22.1481 86.6304C36.4807 128.58 38.272 217.127 49.53 277.627C56.654 315.911 68.5153 328.954 74.7708 369.422C81.4347 412.533 85.6945 463.692 84.4192 503.335C83.1742 542.036 75.5546 560.911 68.1535 575.121C61.9622 587.007 52.2353 565.281 46.0258 577.047Z" stroke="url(#paint9_linear_346_7141)"/>
<path opacity="0.234043" fill-rule="evenodd" clip-rule="evenodd" d="M37.1912 567.48C23.6529 586.445 14.3542 659.102 0.218662 653.716C-14.0422 648.282 -32.9065 604.561 -33.3953 540.585C-33.9673 465.727 -8.53681 440.092 -1.93966 371.247C2.12521 328.827 -6.85546 280.58 -4.20606 235.976C-0.547013 174.374 3.48361 103.113 15.8627 71.5335C28.3709 39.6242 47.0279 36.0539 58.1707 76.8488C69.9265 119.888 63.3602 208.254 69.9368 269.505C74.0984 308.265 85.918 322.291 88.9114 363.151C92.1002 406.678 91.8621 458.014 86.632 497.395C81.5262 535.84 71.3044 553.98 61.7737 567.49C53.801 578.792 45.1724 556.3 37.1912 567.48Z" stroke="url(#paint10_linear_346_7141)"/>
<path opacity="0.255319" fill-rule="evenodd" clip-rule="evenodd" d="M28.766 557.667C12.3256 575.266 -4.16389 646.758 -19.1345 640.042C-34.2379 633.266 -51.0326 587.909 -45.9906 524.129C-40.0911 449.501 -10.0794 426.394 3.12684 358.441C11.264 316.571 5.65947 267.65 12.4409 223.469C21.8066 162.45 32.42 91.8463 48.6938 61.5696C65.1375 30.977 85.8275 29.2032 94.443 70.9077C103.533 114.907 88.6587 202.309 90.5039 263.955C91.6715 302.965 103.359 318.068 103.068 359.058C102.757 402.725 98.023 453.842 88.878 492.573C79.9502 530.384 67.2042 547.478 55.6164 560.026C45.9229 570.523 38.4583 547.292 28.766 557.667Z" stroke="url(#paint11_linear_346_7141)"/>
<path opacity="0.276596" fill-rule="evenodd" clip-rule="evenodd" d="M20.8097 547.648C1.61195 563.52 -21.9291 633.147 -37.6001 624.915C-53.4102 616.61 -67.9798 569.645 -57.4448 506.54C-45.1177 432.7 -10.7906 412.723 8.9146 346.29C21.0561 305.357 18.8836 255.983 29.7415 212.605C44.7373 152.696 61.8467 83.3535 81.8734 54.8177C102.109 25.9843 124.647 26.333 130.654 68.8162C136.991 113.637 113.932 199.3 111.022 260.983C109.181 300.016 120.63 316.278 117.052 357.137C113.24 400.664 104.046 451.169 91.0628 488.869C78.3885 525.672 63.2302 541.419 49.6875 552.75C38.3587 562.228 32.1275 538.291 20.8097 547.648Z" stroke="url(#paint12_linear_346_7141)"/>
<path opacity="0.297872" fill-rule="evenodd" clip-rule="evenodd" d="M13.3772 537.471C-8.39217 551.271 -38.7784 618.35 -54.9894 608.43C-71.3442 598.423 -83.5228 549.896 -67.5734 487.937C-48.911 415.438 -10.6039 399.164 15.431 334.866C31.4726 295.248 32.7748 245.648 47.6189 203.448C68.1199 145.166 91.5834 77.6786 115.174 51.3058C139.011 24.658 163.172 27.4355 166.491 70.5588C169.993 116.055 138.944 199.218 131.282 260.577C126.433 299.405 137.523 316.898 130.676 357.364C123.382 400.473 109.799 449.979 93.0925 486.273C76.7831 521.704 59.3576 535.815 43.991 545.684C31.1363 553.94 26.2111 529.336 13.3772 537.471Z" stroke="url(#paint13_linear_346_7141)"/>
<path opacity="0.319149" fill-rule="evenodd" clip-rule="evenodd" d="M6.51853 527.193C-17.5979 538.597 -54.5577 602.465 -71.1237 590.704C-87.8367 578.839 -97.4494 528.813 -76.2049 468.463C-51.3467 397.848 -9.46198 385.813 22.6758 324.247C42.4777 286.312 47.2839 236.718 65.9897 196.059C91.8239 139.907 121.445 74.8542 148.367 51.0463C175.57 26.9901 201.087 32.4783 201.645 76.0943C202.234 122.11 163.46 202.035 151.075 262.709C143.238 301.104 153.833 319.887 143.756 359.701C133.022 402.115 115.154 450.241 94.8741 484.768C75.0759 518.475 55.5604 530.676 38.5282 538.854C24.2802 545.695 20.7361 520.47 6.51853 527.193Z" stroke="url(#paint14_linear_346_7141)"/>
<path opacity="0.340426" fill-rule="evenodd" clip-rule="evenodd" d="M0.277347 516.878C-25.9248 525.584 -69.1233 585.609 -85.837 571.873C-102.699 558.014 -109.564 506.572 -83.1835 448.284C-52.3154 380.081 -7.31791 372.779 30.6402 314.516C54.0284 278.618 62.3536 229.265 84.7634 190.5C115.713 136.961 151.244 74.9025 181.22 54.0362C211.51 32.9523 238.083 41.4041 235.811 85.3571C233.415 131.728 187.249 207.702 170.198 267.334C159.409 305.069 169.359 325.186 156.112 364.092C142.001 405.539 119.986 451.915 96.3165 484.331C73.2095 515.975 51.8113 526.012 33.2979 532.286C17.8109 537.535 15.7245 511.745 0.277347 516.878Z" stroke="url(#paint15_linear_346_7141)"/>
<path opacity="0.361702" fill-rule="evenodd" clip-rule="evenodd" d="M-5.30959 506.596C-33.3018 512.332 -82.3442 567.915 -98.9779 552.093C-115.759 536.13 -119.691 483.375 -88.371 427.585C-51.7239 362.304 -4.13685 360.178 39.3059 305.763C66.0734 272.236 77.918 223.364 103.842 186.827C139.646 136.366 180.787 77.8342 213.503 60.257C246.559 42.4964 273.853 54.1319 268.69 98.2571C263.244 144.81 210.083 216.154 188.449 274.39C174.759 311.242 183.906 332.72 167.569 370.468C150.165 410.681 124.172 454.951 97.3308 484.927C71.1272 514.191 48.0819 521.832 28.2959 526.009C11.7444 529.503 11.1928 503.214 -5.30959 506.596Z" stroke="url(#paint16_linear_346_7141)"/>
<path opacity="0.382979" fill-rule="evenodd" clip-rule="evenodd" d="M-10.2135 496.424C-39.6689 498.95 -94.1038 549.533 -110.412 531.539C-126.865 513.385 -127.674 459.445 -91.65 406.569C-49.4979 344.699 0.102761 348.135 48.644 298.079C78.5529 267.237 93.9024 219.086 123.122 185.094C163.477 138.149 209.881 83.6484 244.982 69.6743C280.449 55.5544 308.099 70.5567 299.99 114.68C291.436 161.232 231.741 227.308 205.633 283.801C189.113 319.55 197.287 342.397 177.958 378.743C157.368 417.463 127.597 459.285 97.8314 486.519C68.7736 513.106 44.3423 518.143 23.5146 520.052C6.09149 521.649 7.15156 494.934 -10.2135 496.424Z" stroke="url(#paint17_linear_346_7141)"/>
<path opacity="0.404255" fill-rule="evenodd" clip-rule="evenodd" d="M-14.4142 486.443C-44.978 485.554 -104.301 530.623 -120.024 510.399C-135.886 489.996 -133.385 435.021 -92.9252 385.456C-45.5834 327.46 5.40807 336.783 58.6147 291.557C91.3983 263.691 110.222 216.505 142.489 185.353C187.052 142.33 238.328 92.3313 275.428 82.2372C312.914 72.0377 340.53 90.5495 329.431 134.49C317.72 180.847 252.008 241.062 221.562 295.472C202.296 329.903 209.321 354.109 187.12 388.818C163.469 425.793 130.148 464.847 97.7362 489.058C66.0944 512.695 40.5618 514.95 18.9426 514.446C0.857541 514.024 3.60435 486.968 -14.4142 486.443Z" stroke="url(#paint18_linear_346_7141)"/>
<path opacity="0.425532" fill-rule="evenodd" clip-rule="evenodd" d="M-17.9008 476.741C-49.1941 472.267 -112.854 511.36 -127.718 488.879C-142.714 466.199 -136.718 410.364 -92.1259 364.481C-39.9486 310.792 11.7708 326.259 69.1667 286.292C104.531 261.667 126.784 215.688 161.824 187.648C210.217 148.922 265.93 103.857 304.612 97.8794C343.699 91.8391 370.869 113.96 356.741 157.525C341.837 203.488 270.679 257.298 236.055 309.297C214.146 342.201 219.841 367.733 194.903 400.579C168.336 435.57 131.723 471.555 96.9671 492.493C63.0375 512.933 36.7083 512.257 14.5653 509.221C-3.95807 506.681 0.547836 479.378 -17.9008 476.741Z" stroke="url(#paint19_linear_346_7141)"/>
<path opacity="0.446809" fill-rule="evenodd" clip-rule="evenodd" d="M-20.6723 467.405C-52.296 459.221 -119.698 491.93 -133.422 467.194C-147.269 442.24 -137.599 385.746 -89.2074 343.888C-32.5848 294.909 19.1665 316.703 80.2364 282.378C117.865 261.229 143.483 216.701 180.998 192.017C232.808 157.927 292.487 118.187 332.311 116.518C372.551 114.832 398.846 140.615 381.667 183.607C363.542 228.964 287.558 275.883 248.942 325.152C224.506 356.329 228.686 383.133 201.166 413.902C171.849 446.68 132.223 479.319 95.4511 496.762C59.5525 513.79 32.7486 510.067 10.3636 504.408C-8.36217 499.674 -2.02887 472.231 -20.6723 467.405Z" stroke="url(#paint20_linear_346_7141)"/>
<path opacity="0.468085" fill-rule="evenodd" clip-rule="evenodd" d="M-22.738 458.528C-54.2771 446.548 -124.787 472.524 -137.086 445.569C-149.494 418.376 -135.98 361.45 -84.1523 323.929C-23.5081 280.027 27.5538 308.258 91.7479 279.908C131.301 262.44 160.206 219.604 199.876 198.493C254.663 169.337 317.801 135.269 358.304 138.055C399.229 140.871 424.21 170.322 403.965 212.533C382.607 257.067 302.459 296.666 260.06 342.901C233.23 372.159 235.712 400.159 205.781 428.649C173.895 458.999 131.562 488.042 93.1203 501.8C55.5918 515.231 28.6489 508.378 6.31494 500.036C-12.3681 493.058 -4.14447 465.59 -22.738 458.528Z" stroke="url(#paint21_linear_346_7141)"/>
<path opacity="0.489362" fill-rule="evenodd" clip-rule="evenodd" d="M-24.1178 450.2C-55.1458 434.387 -128.1 453.341 -138.685 424.237C-149.363 394.874 -131.849 337.766 -76.9718 304.865C-12.7595 266.367 36.8741 301.066 103.613 278.969C144.734 265.355 176.829 224.451 218.316 207.099C275.612 183.135 341.673 155.036 382.376 162.376C423.504 169.792 446.722 202.867 423.413 244.084C398.822 287.569 315.211 319.483 269.261 362.397C240.184 389.552 240.786 418.65 208.63 444.673C174.374 472.395 129.66 497.617 89.9127 507.536C51.1101 517.218 24.374 507.189 2.39243 496.137C-15.9959 486.891 -5.82565 459.523 -24.1178 450.2Z" stroke="url(#paint22_linear_346_7141)"/>
<path opacity="0.510638" fill-rule="evenodd" clip-rule="evenodd" d="M-24.8426 442.515C-54.9262 422.874 -129.634 434.585 -138.218 403.433C-146.878 372.004 -125.222 314.991 -67.7062 286.955C-0.406236 254.15 47.051 295.266 115.731 279.647C158.048 270.023 193.22 231.288 236.168 217.849C295.485 199.29 363.908 177.408 404.321 189.349C445.156 201.415 466.163 238.019 439.805 278.022C411.996 320.226 325.655 344.157 276.407 383.478C245.243 408.359 243.79 438.432 209.61 461.815C173.198 486.725 126.446 507.933 85.7723 513.893C46.0653 519.71 19.8884 506.496 -1.43475 492.736C-19.2723 481.226 -7.10722 454.094 -24.8426 442.515Z" stroke="url(#paint23_linear_346_7141)"/>
<path opacity="0.531915" fill-rule="evenodd" clip-rule="evenodd" d="M-24.9541 435.562C-53.658 412.147 -129.409 416.459 -135.711 383.396C-142.07 350.04 -116.15 293.421 -56.4254 270.46C13.4587 243.594 57.9909 290.994 127.988 282.019C171.117 276.488 209.235 240.151 253.279 230.748C314.108 217.76 384.311 202.29 423.938 218.83C463.978 235.543 482.331 275.53 452.954 314.093C421.961 354.778 333.645 370.498 281.375 405.973C248.299 428.421 244.619 459.324 208.63 479.911C170.291 501.841 121.861 518.873 80.65 520.79C40.4186 522.662 15.1558 506.29 -5.20141 489.86C-22.2309 476.117 -8.03211 449.366 -24.9541 435.562Z" stroke="url(#paint24_linear_346_7141)"/>
<path opacity="0.553191" fill-rule="evenodd" clip-rule="evenodd" d="M-24.505 429.429C-51.3969 402.34 -127.468 399.167 -131.217 364.364C-135 329.252 -104.716 273.35 -43.2292 255.636C28.7163 234.909 69.5827 288.38 140.26 286.154C183.809 284.782 224.724 251.069 269.487 245.787C331.307 238.491 402.692 229.574 441.035 250.659C479.779 271.963 495.043 315.135 462.695 352.03C428.567 390.954 339.054 398.305 284.055 429.702C249.252 449.57 243.188 481.136 205.616 498.786C165.592 517.589 115.855 530.312 74.5035 528.144C34.1345 526.026 10.1396 506.562 -8.94616 487.533C-24.912 471.614 -8.65125 445.399 -24.505 429.429Z" stroke="url(#paint25_linear_346_7141)"/>
<path opacity="0.574468" fill-rule="evenodd" clip-rule="evenodd" d="M-23.5587 424.201C-48.214 393.584 -123.874 382.91 -124.813 346.57C-125.76 309.907 -91.035 255.065 -28.2468 242.732C45.2217 228.3 81.6983 287.545 152.412 292.114C195.982 294.929 239.53 264.057 284.626 262.947C346.909 261.415 418.867 259.136 455.434 284.659C492.383 310.447 504.138 356.558 468.885 391.551C431.691 428.469 341.768 427.367 284.352 454.476C248.019 471.63 239.425 503.67 200.508 518.263C159.051 533.809 108.39 542.127 67.2976 535.865C27.1813 529.753 4.80295 507.3 -12.7114 485.774C-27.3626 467.768 -9.02346 442.25 -23.5587 424.201Z" stroke="url(#paint26_linear_346_7141)"/>
<path opacity="0.595745" fill-rule="evenodd" clip-rule="evenodd" d="M-22.189 419.955C-44.1959 386.005 -118.716 367.884 -116.603 330.242C-114.471 292.266 -75.2567 238.846 -11.6366 231.985C62.8053 223.957 94.1934 288.599 164.295 299.947C207.488 306.94 253.485 279.118 298.529 282.198C360.739 286.451 432.656 290.84 466.963 320.641C501.629 350.754 509.478 399.506 471.402 432.365C431.231 467.031 341.691 457.465 282.186 480.098C244.532 494.42 233.278 526.725 193.262 538.158C150.634 550.338 99.4396 554.186 59.005 543.864C19.5312 533.788 -0.891051 508.488 -16.5428 484.602C-29.6359 464.621 -9.21506 439.969 -22.189 419.955Z" stroke="url(#paint27_linear_346_7141)"/>
<path opacity="0.617021" fill-rule="evenodd" clip-rule="evenodd" d="M-20.4797 416.765C-39.444 379.721 -112.101 354.277 -106.716 315.598C-101.282 276.577 -57.5609 224.959 6.41512 223.621C81.2735 222.056 106.908 291.641 175.754 309.692C218.173 320.815 266.42 296.241 311.024 303.491C372.627 313.503 443.887 324.532 475.467 358.404C507.376 392.63 510.947 443.681 470.152 474.17C427.112 506.337 338.746 488.37 277.495 506.365C238.736 517.753 224.709 550.094 183.85 558.285C140.322 567.01 88.987 566.359 49.6059 552.048C11.1605 538.077 -6.97899 510.108 -20.4894 484.029C-31.7912 462.214 -9.29953 438.604 -20.4797 416.765Z" stroke="url(#paint28_linear_346_7141)"/>
<path opacity="0.638298" fill-rule="evenodd" clip-rule="evenodd" d="M-18.5242 414.695C-34.0739 374.838 -104.159 342.265 -95.3038 302.845C-86.37 263.075 -38.1579 213.651 25.6953 217.848C100.41 222.758 119.669 296.756 186.624 321.373C227.878 336.541 278.159 315.403 321.939 326.767C382.404 342.462 452.398 360.046 480.801 397.732C509.501 435.811 508.451 488.771 465.061 516.66C419.283 546.083 332.874 519.851 270.233 533.072C230.593 541.438 213.702 573.569 172.258 578.455C128.109 583.66 77.0284 578.514 39.0884 560.323C2.04988 542.564 -13.497 512.138 -24.6029 484.065C-33.8934 460.581 -9.35702 438.192 -18.5242 414.695Z" stroke="url(#paint29_linear_346_7141)"/>
<path opacity="0.659574" fill-rule="evenodd" clip-rule="evenodd" d="M-16.4244 413.803C-28.2144 371.456 -95.0382 332.015 -82.5442 292.174C-69.9393 251.979 -17.2872 205.154 45.9655 214.853C119.978 226.202 132.288 304.012 196.732 334.998C236.439 354.09 288.521 336.562 331.1 351.95C389.905 373.202 458.033 397.203 482.837 438.397C507.899 480.02 501.925 534.46 456.082 559.519C407.717 585.957 324.034 551.671 260.368 560.006C220.08 565.281 200.255 596.941 158.493 598.48C114.005 600.121 63.5711 590.52 27.4485 568.594C-7.81574 547.189 -20.4804 514.553 -28.9378 484.714C-36.0126 459.753 -9.47373 438.767 -16.4244 413.803Z" stroke="url(#paint30_linear_346_7141)"/>
<path opacity="0.680851" fill-rule="evenodd" clip-rule="evenodd" d="M-14.2904 414.134C-22.0068 369.66 -84.9067 323.679 -68.6349 283.761C-52.2187 243.489 4.78506 199.673 66.9639 214.803C139.72 232.506 144.566 313.462 205.9 350.562C243.691 373.42 297.326 359.661 338.336 378.949C394.974 405.586 460.65 435.809 481.46 480.161C502.487 524.976 491.325 580.426 443.194 602.433C392.415 625.65 312.203 583.589 247.889 586.957C207.191 589.088 184.386 620 142.575 618.173C98.0333 616.227 48.6339 602.245 14.6903 576.767C-18.4468 551.895 -27.9636 517.326 -33.5502 485.976C-38.2236 459.75 -9.74128 440.354 -14.2904 414.134Z" stroke="url(#paint31_linear_346_7141)"/>
<path opacity="0.702128" fill-rule="evenodd" clip-rule="evenodd" d="M-12.2392 415.726C-15.6034 369.522 -73.9497 317.39 -53.7944 277.761C-33.4603 237.781 27.7678 197.39 88.4075 217.837C159.362 241.762 156.296 325.138 213.945 368.04C249.466 394.474 304.393 384.627 343.478 407.656C397.458 439.46 460.117 475.657 476.573 522.776C493.202 570.387 476.634 626.344 426.401 645.082C373.404 664.851 297.379 615.364 232.799 613.71C191.933 612.663 166.131 642.542 124.539 637.349C80.232 631.817 32.2471 613.561 0.82572 584.748C-29.849 556.619 -35.9796 520.426 -38.4981 487.844C-40.605 460.588 -10.2559 442.966 -12.2392 415.726Z" stroke="url(#paint32_linear_346_7141)"/>
<path opacity="0.723404" fill-rule="evenodd" clip-rule="evenodd" d="M-10.3939 418.604C-9.1664 371.098 -62.368 313.267 -38.2593 274.31C-13.9367 235.007 51.3476 198.457 109.994 224.069C178.617 254.037 167.259 339.052 220.681 387.391C253.597 417.176 309.539 411.369 346.36 437.948C397.214 474.656 456.315 516.529 468.098 565.985C480.004 615.957 457.862 671.889 405.732 687.151C350.735 703.254 279.58 646.755 215.122 640.053C174.333 635.812 145.543 664.362 104.44 655.826C60.6535 646.732 14.452 624.342 -14.1253 592.443C-42.0236 561.302 -44.5598 523.819 -43.8405 490.308C-43.2388 462.275 -11.1176 446.611 -10.3939 418.604Z" stroke="url(#paint33_linear_346_7141)"/>
<path opacity="0.744681" fill-rule="evenodd" clip-rule="evenodd" d="M-8.88246 422.781C-2.86628 374.432 -50.3766 311.407 -22.2826 273.519C6.06068 235.294 75.192 202.997 131.407 233.582C197.184 269.369 177.233 355.194 225.921 408.557C255.919 441.437 312.588 439.777 346.825 469.686C394.109 510.992 449.142 558.193 455.972 609.522C462.874 661.387 435.042 716.734 381.243 728.326C324.484 740.556 258.841 677.522 194.895 665.777C154.431 658.345 122.692 685.265 82.345 673.428C39.3637 660.819 -4.69911 634.468 -30.1352 599.763C-54.967 565.882 -53.7336 527.466 -49.6367 493.35C-46.2096 464.81 -12.4292 451.284 -8.88246 422.781Z" stroke="url(#paint34_linear_346_7141)"/>
<path opacity="0.765957" fill-rule="evenodd" clip-rule="evenodd" d="M-7.83649 428.256C3.1197 379.546 -38.2025 311.885 -6.13103 275.473C26.2249 238.737 98.9517 211.098 152.314 246.427C214.754 287.765 185.992 373.535 229.478 431.459C256.272 467.149 313.366 469.726 344.72 502.713C388.021 548.272 438.508 600.409 440.154 653.116C441.817 706.373 408.234 760.559 353.014 768.298C294.755 776.464 235.218 707.429 172.176 690.676C132.282 680.074 97.6644 705.059 58.3369 689.988C16.4417 673.933 -25.1436 643.822 -47.1688 606.619C-68.6707 570.299 -63.5283 531.33 -55.9463 496.947C-49.6036 468.185 -14.2956 456.972 -7.83649 428.256Z" stroke="url(#paint35_linear_346_7141)"/>
<path opacity="0.787234" fill-rule="evenodd" clip-rule="evenodd" d="M-7.39013 435.017C8.60917 386.446 -26.0822 314.755 9.91719 280.232C46.2359 245.402 122.265 222.812 172.375 262.622C231.01 309.203 193.305 394.018 231.168 456C254.498 494.19 311.707 501.069 339.902 536.859C378.841 586.289 424.341 642.926 420.62 696.491C416.86 750.614 377.525 803.045 321.149 806.766C261.672 810.691 208.786 736.245 147.035 714.547C107.96 700.816 70.5632 723.562 32.5133 705.342C-8.02101 685.932 -46.809 652.294 -65.1836 612.926C-83.1216 574.494 -73.9687 535.365 -62.8279 501.07C-53.5082 472.381 -16.8223 463.651 -7.39013 435.017Z" stroke="url(#paint36_linear_346_7141)"/>
<path opacity="0.808511" fill-rule="evenodd" clip-rule="evenodd" d="M-7.6785 443.037C13.4165 395.122 -14.2603 320.046 25.5752 287.827C65.764 255.323 144.759 238.159 191.243 282.151C245.633 333.626 198.945 416.567 230.812 482.062C250.447 522.418 307.452 533.644 332.239 571.937C366.473 624.822 406.589 685.483 397.369 739.364C388.052 793.807 343.026 843.883 285.78 843.436C225.384 842.965 179.636 763.745 119.563 737.196C81.5493 720.395 41.5063 740.601 4.98502 719.338C-33.9209 696.687 -69.6133 659.781 -84.1301 618.604C-98.3019 578.406 -85.0764 539.528 -70.3389 505.683C-58.0105 477.372 -20.1148 471.284 -7.6785 443.037Z" stroke="url(#paint37_linear_346_7141)"/>
<path opacity="0.829787" fill-rule="evenodd" clip-rule="evenodd" d="M-8.83651 452.274C17.3546 405.541 -2.98644 327.762 40.55 298.261C84.4726 268.499 166.057 257.115 208.565 304.961C258.305 360.945 202.687 441.078 228.237 509.511C243.98 551.676 300.452 567.271 321.612 607.743C350.836 663.637 385.214 727.814 370.419 781.454C355.468 835.653 304.87 882.771 247.058 878.027C186.065 873.023 147.88 789.71 89.8636 758.434C53.1512 738.642 10.6262 756.014 -24.1242 731.835C-61.1434 706.077 -93.4659 666.185 -103.952 623.576C-114.189 581.979 -96.8703 543.767 -78.5349 510.746C-63.1968 483.122 -24.2772 479.825 -8.83651 452.274Z" stroke="url(#paint38_linear_346_7141)"/>
<path opacity="0.851064" fill-rule="evenodd" clip-rule="evenodd" d="M-10.9972 462.677C20.237 417.655 7.48707 337.885 54.5459 311.509C102.022 284.899 185.778 279.625 223.994 330.967C268.71 391.041 204.31 467.429 223.277 538.193C234.964 581.795 290.572 601.756 307.915 644.064C331.867 702.495 360.203 769.647 339.81 822.478C319.205 875.86 263.218 919.421 205.159 910.273C143.905 900.622 113.646 813.935 58.0564 778.086C22.8797 755.4 -21.9314 769.654 -54.6787 742.703C-89.564 713.993 -118.268 671.423 -124.587 627.772C-130.757 585.159 -109.366 548.037 -87.4689 516.211C-69.1516 489.588 -29.4109 489.219 -10.9972 462.677Z" stroke="url(#paint39_linear_346_7141)"/>
<path opacity="0.87234" fill-rule="evenodd" clip-rule="evenodd" d="M-14.2905 474.171C21.8797 431.39 16.9075 350.363 67.2669 327.507C118.073 304.449 203.546 305.585 237.182 360.039C276.54 423.754 203.603 495.465 215.78 567.931C223.282 612.581 277.69 636.88 291.058 680.666C309.52 741.139 331.559 810.7 305.605 862.149C279.38 914.136 218.252 953.551 160.28 939.915C99.1184 925.529 77.0778 836.218 24.2753 795.977C-9.13804 770.513 -56.0083 781.377 -86.5321 751.819C-119.049 720.331 -143.913 675.41 -145.968 631.123C-147.973 587.888 -122.574 552.278 -97.1905 522.022C-75.9566 496.713 -35.6142 499.392 -14.2905 474.171Z" stroke="url(#paint40_linear_346_7141)"/>
<path opacity="0.893617" fill-rule="evenodd" clip-rule="evenodd" d="M-18.8415 486.676C22.1032 446.658 25.0248 365.127 78.4203 346.171C132.289 327.047 218.987 334.86 247.793 392.017C281.498 458.898 200.365 525.015 205.602 598.536C208.83 643.836 261.697 672.418 270.966 717.311C283.768 779.312 299.308 850.692 267.887 900.189C236.138 950.202 170.175 984.9 112.638 966.718C51.9355 947.535 38.3368 856.375 -11.3325 811.953C-42.7631 783.844 -91.4351 791.063 -119.528 759.079C-149.456 725.007 -170.29 678.08 -168.019 633.569C-165.802 590.116 -136.503 556.438 -107.746 528.122C-83.6897 504.434 -42.98 510.268 -18.8415 486.676Z" stroke="url(#paint41_linear_346_7141)"/>
<path opacity="0.914894" fill-rule="evenodd" clip-rule="evenodd" d="M-24.7695 500.094C20.7343 463.351 31.5935 382.078 87.7193 367.381C144.343 352.555 231.74 367.272 255.498 426.706C283.298 496.251 194.406 555.884 192.618 629.799C191.516 675.342 242.506 708.127 247.587 753.744C254.604 816.746 263.498 889.342 226.761 936.32C189.64 983.788 119.213 1013.22 62.47 990.461C2.60446 966.449 -2.40217 874.234 -48.607 825.869C-77.8453 795.264 -128.033 798.604 -153.503 764.392C-180.636 727.947 -197.279 679.375 -190.663 635.058C-184.205 591.795 -151.155 560.462 -119.176 534.445C-92.4242 512.681 -51.5957 521.756 -24.7695 500.094Z" stroke="url(#paint42_linear_346_7141)"/>
<path opacity="0.93617" fill-rule="evenodd" clip-rule="evenodd" d="M-32.1859 514.317C17.6086 481.341 36.3763 401.092 94.8864 390.99C153.915 380.798 241.455 402.606 259.988 463.872C281.674 535.561 185.554 587.855 176.716 661.498C171.27 706.873 220.045 743.752 220.884 789.705C222.043 853.17 224.2 926.366 182.355 970.273C140.073 1014.64 65.6107 1038.29 10.0287 1010.94C-48.6116 982.099 -44.9503 889.635 -87.3768 837.592C-114.224 804.659 -165.613 803.906 -188.283 767.68C-212.434 729.088 -224.758 679.245 -213.818 635.543C-203.138 592.879 -166.53 564.291 -131.517 540.922C-102.228 521.374 -61.5416 533.757 -32.1859 514.317Z" stroke="url(#paint43_linear_346_7141)"/>
<path opacity="0.957447" fill-rule="evenodd" clip-rule="evenodd" d="M-41.1932 529.22C12.5718 500.483 39.1456 422.019 99.6563 416.818C160.704 411.572 247.801 440.609 260.971 503.25C276.38 576.546 173.652 620.69 157.803 693.393C148.037 738.188 194.265 779.028 190.845 824.924C186.12 888.309 181.507 961.483 134.818 1001.78C87.6419 1042.5 9.62986 1059.88 -44.4162 1027.99C-101.436 994.339 -89.1061 902.436 -127.46 847.003C-151.73 811.925 -203.981 806.895 -223.692 768.881C-244.69 728.385 -252.6 677.652 -237.396 634.983C-222.553 593.327 -182.623 567.867 -144.801 547.479C-113.161 530.424 -72.8897 546.162 -41.1932 529.22Z" stroke="url(#paint44_linear_346_7141)"/>
<path opacity="0.978723" fill-rule="evenodd" clip-rule="evenodd" d="M-51.8838 544.671C5.48215 520.615 39.687 444.687 101.779 444.662C164.422 444.635 250.47 480.995 258.177 544.541C267.194 618.897 158.566 654.133 135.807 725.233C121.783 769.041 165.139 813.679 157.477 859.124C146.894 921.888 135.534 994.414 84.3206 1030.6C32.5731 1067.15 -48.4497 1077.83 -100.581 1041.44C-155.581 1003.04 -134.657 912.511 -168.666 854.001C-190.186 816.976 -242.935 807.511 -259.546 767.948C-277.241 725.803 -280.677 674.572 -261.309 633.346C-242.401 593.1 -199.421 571.131 -159.051 554.037C-125.279 539.737 -85.7032 558.852 -51.8838 544.671Z" stroke="url(#paint45_linear_346_7141)"/>
<path fill-rule="evenodd" clip-rule="evenodd" d="M-64.3381 560.523C-3.78801 541.558 37.8011 468.901 101.023 474.287C164.805 479.72 249.176 523.441 251.362 587.417C253.921 662.276 140.182 687.91 110.676 756.756C92.4955 799.176 132.662 847.423 120.812 892.027C104.447 953.629 86.42 1024.89 31.0542 1056.47C-24.8892 1088.38 -108.334 1091.95 -158.17 1051.15C-210.748 1008.11 -181.38 919.749 -210.794 858.498C-229.407 819.738 -282.271 805.711 -295.658 764.852C-309.921 721.324 -308.856 669.989 -285.464 630.608C-262.628 592.163 -216.911 574.023 -174.285 560.513C-138.626 549.211 -100.035 571.703 -64.3381 560.523Z" stroke="url(#paint46_linear_346_7141)"/>
<defs>
<linearGradient id="paint0_linear_346_7141" x1="432.108" y1="900.8" x2="437.722" y2="894.011" gradientUnits="userSpaceOnUse">
<stop stop-color="#473B7B"/>
<stop offset="0.509108" stop-color="#3584A7"/>
<stop offset="1" stop-color="#30D2BE"/>
</linearGradient>
<linearGradient id="paint1_linear_346_7141" x1="398.834" y1="919.436" x2="421.391" y2="895.627" gradientUnits="userSpaceOnUse">
<stop stop-color="#473B7B"/>
<stop offset="0.509108" stop-color="#3584A7"/>
<stop offset="1" stop-color="#30D2BE"/>
</linearGradient>
<linearGradient id="paint2_linear_346_7141" x1="363.231" y1="935.655" x2="404.95" y2="897.186" gradientUnits="userSpaceOnUse">
<stop stop-color="#473B7B"/>
<stop offset="0.509108" stop-color="#3584A7"/>
<stop offset="1" stop-color="#30D2BE"/>
</linearGradient>
<linearGradient id="paint3_linear_346_7141" x1="325.554" y1="949.234" x2="388.386" y2="898.701" gradientUnits="userSpaceOnUse">
<stop stop-color="#473B7B"/>
<stop offset="0.509108" stop-color="#3584A7"/>
<stop offset="1" stop-color="#30D2BE"/>
</linearGradient>
<linearGradient id="paint4_linear_346_7141" x1="286.077" y1="959.975" x2="371.684" y2="900.18" gradientUnits="userSpaceOnUse">
<stop stop-color="#473B7B"/>
<stop offset="0.509108" stop-color="#3584A7"/>
<stop offset="1" stop-color="#30D2BE"/>
</linearGradient>
<linearGradient id="paint5_linear_346_7141" x1="245.096" y1="967.71" x2="354.827" y2="901.631" gradientUnits="userSpaceOnUse">
<stop stop-color="#473B7B"/>
<stop offset="0.509108" stop-color="#3584A7"/>
<stop offset="1" stop-color="#30D2BE"/>
</linearGradient>
<linearGradient id="paint6_linear_346_7141" x1="202.918" y1="972.3" x2="337.798" y2="903.061" gradientUnits="userSpaceOnUse">
<stop stop-color="#473B7B"/>
<stop offset="0.509108" stop-color="#3584A7"/>
<stop offset="1" stop-color="#30D2BE"/>
</linearGradient>
<linearGradient id="paint7_linear_346_7141" x1="159.865" y1="973.637" x2="320.578" y2="904.472" gradientUnits="userSpaceOnUse">
<stop stop-color="#473B7B"/>
<stop offset="0.509108" stop-color="#3584A7"/>
<stop offset="1" stop-color="#30D2BE"/>
</linearGradient>
<linearGradient id="paint8_linear_346_7141" x1="116.269" y1="971.646" x2="303.149" y2="905.867" gradientUnits="userSpaceOnUse">
<stop stop-color="#473B7B"/>
<stop offset="0.509108" stop-color="#3584A7"/>
<stop offset="1" stop-color="#30D2BE"/>
</linearGradient>
<linearGradient id="paint9_linear_346_7141" x1="72.4666" y1="966.283" x2="285.49" y2="907.246" gradientUnits="userSpaceOnUse">
<stop stop-color="#473B7B"/>
<stop offset="0.509108" stop-color="#3584A7"/>
<stop offset="1" stop-color="#30D2BE"/>
</linearGradient>
<linearGradient id="paint10_linear_346_7141" x1="28.7976" y1="957.539" x2="267.58" y2="908.607" gradientUnits="userSpaceOnUse">
<stop stop-color="#473B7B"/>
<stop offset="0.509108" stop-color="#3584A7"/>
<stop offset="1" stop-color="#30D2BE"/>
</linearGradient>
<linearGradient id="paint11_linear_346_7141" x1="-14.398" y1="945.44" x2="249.398" y2="909.944" gradientUnits="userSpaceOnUse">
<stop stop-color="#473B7B"/>
<stop offset="0.509108" stop-color="#3584A7"/>
<stop offset="1" stop-color="#30D2BE"/>
</linearGradient>
<linearGradient id="paint12_linear_346_7141" x1="-56.7841" y1="930.043" x2="230.923" y2="911.251" gradientUnits="userSpaceOnUse">
<stop stop-color="#473B7B"/>
<stop offset="0.509108" stop-color="#3584A7"/>
<stop offset="1" stop-color="#30D2BE"/>
</linearGradient>
<linearGradient id="paint13_linear_346_7141" x1="-98.0312" y1="911.438" x2="212.132" y2="912.517" gradientUnits="userSpaceOnUse">
<stop stop-color="#473B7B"/>
<stop offset="0.509108" stop-color="#3584A7"/>
<stop offset="1" stop-color="#30D2BE"/>
</linearGradient>
<linearGradient id="paint14_linear_346_7141" x1="-137.82" y1="889.75" x2="193.005" y2="913.731" gradientUnits="userSpaceOnUse">
<stop stop-color="#473B7B"/>
<stop offset="0.509108" stop-color="#3584A7"/>
<stop offset="1" stop-color="#30D2BE"/>
</linearGradient>
<linearGradient id="paint15_linear_346_7141" x1="-175.845" y1="865.133" x2="173.52" y2="914.876" gradientUnits="userSpaceOnUse">
<stop stop-color="#473B7B"/>
<stop offset="0.509108" stop-color="#3584A7"/>
<stop offset="1" stop-color="#30D2BE"/>
</linearGradient>
<linearGradient id="paint16_linear_346_7141" x1="-211.815" y1="837.771" x2="153.657" y2="915.936" gradientUnits="userSpaceOnUse">
<stop stop-color="#473B7B"/>
<stop offset="0.509108" stop-color="#3584A7"/>
<stop offset="1" stop-color="#30D2BE"/>
</linearGradient>
<linearGradient id="paint17_linear_346_7141" x1="-245.46" y1="807.876" x2="133.394" y2="916.891" gradientUnits="userSpaceOnUse">
<stop stop-color="#473B7B"/>
<stop offset="0.509108" stop-color="#3584A7"/>
<stop offset="1" stop-color="#30D2BE"/>
</linearGradient>
<linearGradient id="paint18_linear_346_7141" x1="-276.531" y1="775.687" x2="112.714" y2="917.716" gradientUnits="userSpaceOnUse">
<stop stop-color="#473B7B"/>
<stop offset="0.509108" stop-color="#3584A7"/>
<stop offset="1" stop-color="#30D2BE"/>
</linearGradient>
<linearGradient id="paint19_linear_346_7141" x1="-304.802" y1="741.467" x2="91.5972" y2="918.385" gradientUnits="userSpaceOnUse">
<stop stop-color="#473B7B"/>
<stop offset="0.509108" stop-color="#3584A7"/>
<stop offset="1" stop-color="#30D2BE"/>
</linearGradient>
<linearGradient id="paint20_linear_346_7141" x1="-330.074" y1="705.498" x2="70.0283" y2="918.87" gradientUnits="userSpaceOnUse">
<stop stop-color="#473B7B"/>
<stop offset="0.509108" stop-color="#3584A7"/>
<stop offset="1" stop-color="#30D2BE"/>
</linearGradient>
<linearGradient id="paint21_linear_346_7141" x1="-352.178" y1="668.085" x2="47.9921" y2="919.139" gradientUnits="userSpaceOnUse">
<stop stop-color="#473B7B"/>
<stop offset="0.509108" stop-color="#3584A7"/>
<stop offset="1" stop-color="#30D2BE"/>
</linearGradient>
<linearGradient id="paint22_linear_346_7141" x1="-370.973" y1="629.547" x2="25.4757" y2="919.157" gradientUnits="userSpaceOnUse">
<stop stop-color="#473B7B"/>
<stop offset="0.509108" stop-color="#3584A7"/>
<stop offset="1" stop-color="#30D2BE"/>
</linearGradient>
<linearGradient id="paint23_linear_346_7141" x1="-386.352" y1="590.215" x2="2.46855" y2="918.888" gradientUnits="userSpaceOnUse">
<stop stop-color="#473B7B"/>
<stop offset="0.509108" stop-color="#3584A7"/>
<stop offset="1" stop-color="#30D2BE"/>
</linearGradient>
<linearGradient id="paint24_linear_346_7141" x1="-398.237" y1="550.431" x2="-21.0375" y2="918.291" gradientUnits="userSpaceOnUse">
<stop stop-color="#473B7B"/>
<stop offset="0.509108" stop-color="#3584A7"/>
<stop offset="1" stop-color="#30D2BE"/>
</linearGradient>
<linearGradient id="paint25_linear_346_7141" x1="-406.589" y1="510.546" x2="-45.0475" y2="917.324" gradientUnits="userSpaceOnUse">
<stop stop-color="#473B7B"/>
<stop offset="0.509108" stop-color="#3584A7"/>
<stop offset="1" stop-color="#30D2BE"/>
</linearGradient>
<linearGradient id="paint26_linear_346_7141" x1="-411.399" y1="470.91" x2="-69.5639" y2="915.944" gradientUnits="userSpaceOnUse">
<stop stop-color="#473B7B"/>
<stop offset="0.509108" stop-color="#3584A7"/>
<stop offset="1" stop-color="#30D2BE"/>
</linearGradient>
<linearGradient id="paint27_linear_346_7141" x1="-412.695" y1="431.878" x2="-94.5851" y2="914.103" gradientUnits="userSpaceOnUse">
<stop stop-color="#473B7B"/>
<stop offset="0.509108" stop-color="#3584A7"/>
<stop offset="1" stop-color="#30D2BE"/>
</linearGradient>
<linearGradient id="paint28_linear_346_7141" x1="-410.539" y1="393.798" x2="-120.106" y2="911.754" gradientUnits="userSpaceOnUse">
<stop stop-color="#473B7B"/>
<stop offset="0.509108" stop-color="#3584A7"/>
<stop offset="1" stop-color="#30D2BE"/>
</linearGradient>
<linearGradient id="paint29_linear_346_7141" x1="-405.027" y1="357.013" x2="-146.119" y2="908.846" gradientUnits="userSpaceOnUse">
<stop stop-color="#473B7B"/>
<stop offset="0.509108" stop-color="#3584A7"/>
<stop offset="1" stop-color="#30D2BE"/>
</linearGradient>
<linearGradient id="paint30_linear_346_7141" x1="-396.288" y1="321.857" x2="-172.609" y2="905.328" gradientUnits="userSpaceOnUse">
<stop stop-color="#473B7B"/>
<stop offset="0.509108" stop-color="#3584A7"/>
<stop offset="1" stop-color="#30D2BE"/>
</linearGradient>
<linearGradient id="paint31_linear_346_7141" x1="-384.486" y1="288.649" x2="-199.56" y2="901.149" gradientUnits="userSpaceOnUse">
<stop stop-color="#473B7B"/>
<stop offset="0.509108" stop-color="#3584A7"/>
<stop offset="1" stop-color="#30D2BE"/>
</linearGradient>
<linearGradient id="paint32_linear_346_7141" x1="-369.812" y1="257.693" x2="-226.949" y2="896.253" gradientUnits="userSpaceOnUse">
<stop stop-color="#473B7B"/>
<stop offset="0.509108" stop-color="#3584A7"/>
<stop offset="1" stop-color="#30D2BE"/>
</linearGradient>
<linearGradient id="paint33_linear_346_7141" x1="-352.49" y1="229.274" x2="-254.75" y2="890.588" gradientUnits="userSpaceOnUse">
<stop stop-color="#473B7B"/>
<stop offset="0.509108" stop-color="#3584A7"/>
<stop offset="1" stop-color="#30D2BE"/>
</linearGradient>
<linearGradient id="paint34_linear_346_7141" x1="-332.771" y1="203.654" x2="-282.929" y2="884.101" gradientUnits="userSpaceOnUse">
<stop stop-color="#473B7B"/>
<stop offset="0.509108" stop-color="#3584A7"/>
<stop offset="1" stop-color="#30D2BE"/>
</linearGradient>
<linearGradient id="paint35_linear_346_7141" x1="-310.93" y1="181.071" x2="-311.45" y2="876.739" gradientUnits="userSpaceOnUse">
<stop stop-color="#473B7B"/>
<stop offset="0.509108" stop-color="#3584A7"/>
<stop offset="1" stop-color="#30D2BE"/>
</linearGradient>
<linearGradient id="paint36_linear_346_7141" x1="-287.266" y1="161.736" x2="-340.269" y2="868.449" gradientUnits="userSpaceOnUse">
<stop stop-color="#473B7B"/>
<stop offset="0.509108" stop-color="#3584A7"/>
<stop offset="1" stop-color="#30D2BE"/>
</linearGradient>
<linearGradient id="paint37_linear_346_7141" x1="-262.099" y1="145.831" x2="-369.338" y2="859.181" gradientUnits="userSpaceOnUse">
<stop stop-color="#473B7B"/>
<stop offset="0.509108" stop-color="#3584A7"/>
<stop offset="1" stop-color="#30D2BE"/>
</linearGradient>
<linearGradient id="paint38_linear_346_7141" x1="-235.766" y1="133.504" x2="-398.605" y2="848.886" gradientUnits="userSpaceOnUse">
<stop stop-color="#473B7B"/>
<stop offset="0.509108" stop-color="#3584A7"/>
<stop offset="1" stop-color="#30D2BE"/>
</linearGradient>
<linearGradient id="paint39_linear_346_7141" x1="-208.617" y1="124.878" x2="-428.008" y2="837.52" gradientUnits="userSpaceOnUse">
<stop stop-color="#473B7B"/>
<stop offset="0.509108" stop-color="#3584A7"/>
<stop offset="1" stop-color="#30D2BE"/>
</linearGradient>
<linearGradient id="paint40_linear_346_7141" x1="-181.016" y1="120.029" x2="-457.484" y2="825.036" gradientUnits="userSpaceOnUse">
<stop stop-color="#473B7B"/>
<stop offset="0.509108" stop-color="#3584A7"/>
<stop offset="1" stop-color="#30D2BE"/>
</linearGradient>
<linearGradient id="paint41_linear_346_7141" x1="-153.333" y1="119.008" x2="-486.962" y2="811.395" gradientUnits="userSpaceOnUse">
<stop stop-color="#473B7B"/>
<stop offset="0.509108" stop-color="#3584A7"/>
<stop offset="1" stop-color="#30D2BE"/>
</linearGradient>
<linearGradient id="paint42_linear_346_7141" x1="-125.944" y1="121.827" x2="-516.368" y2="796.561" gradientUnits="userSpaceOnUse">
<stop stop-color="#473B7B"/>
<stop offset="0.509108" stop-color="#3584A7"/>
<stop offset="1" stop-color="#30D2BE"/>
</linearGradient>
<linearGradient id="paint43_linear_346_7141" x1="-99.2254" y1="128.461" x2="-545.619" y2="780.505" gradientUnits="userSpaceOnUse">
<stop stop-color="#473B7B"/>
<stop offset="0.509108" stop-color="#3584A7"/>
<stop offset="1" stop-color="#30D2BE"/>
</linearGradient>
<linearGradient id="paint44_linear_346_7141" x1="-73.5507" y1="138.849" x2="-574.632" y2="763.198" gradientUnits="userSpaceOnUse">
<stop stop-color="#473B7B"/>
<stop offset="0.509108" stop-color="#3584A7"/>
<stop offset="1" stop-color="#30D2BE"/>
</linearGradient>
<linearGradient id="paint45_linear_346_7141" x1="-49.2885" y1="152.895" x2="-603.316" y2="744.622" gradientUnits="userSpaceOnUse">
<stop stop-color="#473B7B"/>
<stop offset="0.509108" stop-color="#3584A7"/>
<stop offset="1" stop-color="#30D2BE"/>
</linearGradient>
<linearGradient id="paint46_linear_346_7141" x1="-26.7976" y1="170.464" x2="-631.576" y2="724.762" gradientUnits="userSpaceOnUse">
<stop stop-color="#473B7B"/>
<stop offset="0.509108" stop-color="#3584A7"/>
<stop offset="1" stop-color="#30D2BE"/>
</linearGradient>
</defs>
</svg>
