<svg width="865" height="1084" viewBox="0 0 865 1084" fill="none" xmlns="http://www.w3.org/2000/svg">
<path opacity="0.0212766" fill-rule="evenodd" clip-rule="evenodd" d="M439.497 649.847C453.716 662.405 509.164 709.36 504.716 706.282C500.229 703.176 466.307 675.584 417.288 634.474C359.93 586.372 340.871 569.204 288.283 524.772C255.88 497.395 218.716 466.626 184.608 437.883C137.501 398.187 83.0041 352.272 59.0943 331.637C34.935 310.787 32.6247 307.986 64.1289 333.906C97.3666 361.253 164.909 418.231 211.98 457.424C241.766 482.226 252.78 490.921 284.149 517.104C317.565 544.997 356.885 578.001 386.933 603.456C416.268 628.307 429.931 640.244 440.064 649.187C448.54 656.668 431.114 642.444 439.497 649.847Z" stroke="#D1D5DB"/>
<path opacity="0.0425532" fill-rule="evenodd" clip-rule="evenodd" d="M429.804 642.84C441.951 657.512 492.461 709.756 487.334 707.266C482.162 704.753 449.488 675.597 404.204 630.404C351.218 577.525 335.463 557.027 287.397 507.731C257.781 477.356 222.828 444.078 191.535 412.291C148.316 368.391 98.3035 317.626 77.1275 294.142C55.7305 270.412 54.9456 266.148 84.8309 293.955C116.361 323.292 178.232 386.389 222.157 429.086C249.952 456.106 260.972 464.922 290.144 493.535C321.219 524.016 357.497 560.338 384.856 588.672C411.564 616.333 423.438 630.113 432.103 640.555C439.351 649.29 422.642 634.19 429.804 642.84Z" stroke="#D1D5DB"/>
<path opacity="0.0638298" fill-rule="evenodd" clip-rule="evenodd" d="M419.974 635.621C429.796 652.135 474.873 709.159 468.939 707.107C462.952 705.038 431.549 674.314 390.34 625.378C342.122 568.117 330.093 544.747 286.993 491.04C260.438 457.948 227.854 422.307 199.647 387.749C160.69 340.022 115.589 284.842 97.4553 258.834C79.1322 232.554 80.1005 227.081 108.272 256.696C137.993 287.941 193.645 356.597 234.167 402.552C259.809 431.633 270.893 440.644 297.68 471.505C326.217 504.381 359.173 543.74 383.572 574.676C407.391 604.876 417.263 620.272 424.28 632.02C430.15 641.848 414.184 625.885 419.974 635.621Z" stroke="#D1D5DB"/>
<path opacity="0.0851064" fill-rule="evenodd" clip-rule="evenodd" d="M410.058 628.152C417.334 646.209 456.535 707.459 449.685 705.68C442.774 703.886 412.678 671.586 375.853 619.271C332.763 558.057 324.826 532.321 287.093 474.697C263.843 439.191 233.781 401.343 208.902 364.312C174.541 313.169 134.74 254.045 119.92 225.87C104.946 197.401 107.862 191.001 134.225 222.342C162.039 255.408 210.977 329.016 247.859 377.965C271.197 408.94 282.387 418.228 306.62 451.141C332.435 486.202 361.816 528.298 383.012 561.531C403.705 593.975 411.39 610.738 416.604 623.581C420.965 634.324 405.769 617.507 410.058 628.152Z" stroke="#D1D5DB"/>
<path opacity="0.106383" fill-rule="evenodd" clip-rule="evenodd" d="M400.11 620.406C404.653 639.681 437.59 704.563 429.74 702.876C421.821 701.174 393.078 667.283 360.912 611.981C323.274 547.273 319.734 519.716 287.718 458.705C267.991 421.112 240.591 381.22 219.256 342.034C189.789 287.914 155.63 225.352 144.356 195.396C132.964 165.127 137.985 158.105 162.448 191.088C188.256 225.885 230.044 303.795 263.068 355.455C283.966 388.145 295.291 397.803 316.813 432.558C339.74 469.582 365.321 514.09 383.104 549.297C400.464 583.667 405.804 601.529 409.083 615.237C411.825 626.704 397.431 609.043 400.11 620.406Z" stroke="#D1D5DB"/>
<path opacity="0.12766" fill-rule="evenodd" clip-rule="evenodd" d="M390.188 612.36C391.85 632.51 418.194 700.394 409.285 698.606C400.298 696.801 372.969 661.304 345.703 603.429C313.798 535.709 314.896 506.912 288.896 443.074C272.876 403.739 248.272 361.977 230.665 320.973C206.347 264.341 178.122 198.876 170.584 167.546C162.968 135.89 170.213 128.572 192.682 163.107C216.387 199.542 250.651 281.065 279.622 335.138C297.955 369.356 309.429 379.483 328.102 415.859C347.993 454.611 369.577 501.188 383.766 538.024C397.618 573.984 400.488 592.661 401.726 606.99C402.762 618.978 389.208 600.481 390.188 612.36Z" stroke="#D1D5DB"/>
<path opacity="0.148936" fill-rule="evenodd" clip-rule="evenodd" d="M380.354 604.001C379.027 624.666 398.511 694.895 388.511 692.803C378.422 690.693 352.581 653.571 330.418 593.556C304.485 523.332 310.394 493.901 290.655 427.822C278.492 387.107 256.808 343.656 243.081 301.185C224.124 242.529 202.078 174.72 198.421 142.444C194.726 109.832 204.272 102.558 224.656 138.552C246.161 176.526 272.594 260.942 297.339 317.118C312.997 352.666 324.616 363.364 340.318 401.131C357.046 441.363 374.466 489.652 384.917 527.757C395.119 564.957 395.424 584.149 394.544 598.847C393.809 611.142 381.136 591.819 380.354 604.001Z" stroke="#D1D5DB"/>
<path opacity="0.170213" fill-rule="evenodd" clip-rule="evenodd" d="M370.672 595.325C366.288 616.134 378.71 688.026 367.613 685.423C356.418 682.797 332.154 644.036 315.26 582.33C295.493 510.127 306.314 480.689 293.023 412.975C284.834 371.254 266.183 326.303 256.457 282.731C243.025 222.555 227.348 152.981 227.672 120.2C227.999 87.0779 239.881 80.1978 258.088 117.553C277.297 156.964 295.66 243.527 316.027 301.481C328.916 338.154 340.659 349.529 353.289 388.446C366.743 429.904 379.867 479.533 386.469 518.535C392.915 556.609 390.593 576.011 387.548 590.813C385.001 603.197 373.257 583.058 370.672 595.325Z" stroke="#D1D5DB"/>
<path opacity="0.191489" fill-rule="evenodd" clip-rule="evenodd" d="M361.208 586.336C353.74 606.91 358.966 679.767 346.796 676.444C334.517 673.091 311.932 632.678 300.434 569.742C286.98 496.102 302.741 467.292 296.03 398.568C291.895 356.223 276.379 309.968 270.739 265.67C262.95 204.491 253.78 133.748 258.135 100.913C262.536 67.7356 276.745 61.6048 292.685 100.218C309.503 140.956 319.628 228.9 335.492 288.299C345.53 325.886 357.36 338.043 366.834 377.863C376.927 420.282 385.652 470.87 388.334 510.386C390.952 548.963 385.977 568.26 380.748 582.9C376.374 595.148 365.61 574.207 361.208 586.336Z" stroke="#D1D5DB"/>
<path opacity="0.212766" fill-rule="evenodd" clip-rule="evenodd" d="M352.026 577.047C341.493 597.005 339.455 670.118 326.263 665.866C312.953 661.576 292.163 619.507 286.147 555.813C279.107 481.285 299.763 453.745 299.701 384.642C299.663 342.063 287.374 294.707 285.872 250.064C283.796 188.408 281.213 117.102 289.603 84.6671C298.081 51.8942 314.563 46.8683 328.148 86.6304C342.481 128.58 344.272 217.127 355.53 277.627C362.654 315.911 374.515 328.954 380.771 369.422C387.435 412.533 391.695 463.692 390.419 503.335C389.174 542.036 381.555 560.911 374.153 575.121C367.962 587.007 358.235 565.281 352.026 577.047Z" stroke="#D1D5DB"/>
<path opacity="0.234043" fill-rule="evenodd" clip-rule="evenodd" d="M343.191 567.48C329.653 586.445 320.354 659.102 306.219 653.716C291.958 648.282 273.093 604.561 272.605 540.585C272.033 465.727 297.463 440.092 304.06 371.247C308.125 328.827 299.145 280.58 301.794 235.976C305.453 174.374 309.484 103.113 321.863 71.5335C334.371 39.6242 353.028 36.0539 364.171 76.8488C375.926 119.888 369.36 208.254 375.937 269.505C380.098 308.265 391.918 322.291 394.911 363.151C398.1 406.678 397.862 458.014 392.632 497.395C387.526 535.84 377.304 553.98 367.774 567.49C359.801 578.792 351.172 556.3 343.191 567.48Z" stroke="#D1D5DB"/>
<path opacity="0.255319" fill-rule="evenodd" clip-rule="evenodd" d="M334.766 557.667C318.326 575.266 301.836 646.758 286.866 640.042C271.762 633.266 254.967 587.909 260.009 524.129C265.909 449.501 295.921 426.394 309.127 358.441C317.264 316.571 311.659 267.65 318.441 223.469C327.807 162.45 338.42 91.8463 354.694 61.5696C371.137 30.977 391.827 29.2032 400.443 70.9077C409.533 114.907 394.659 202.309 396.504 263.955C397.672 302.965 409.359 318.068 409.068 359.058C408.757 402.725 404.023 453.842 394.878 492.573C385.95 530.384 373.204 547.478 361.616 560.026C351.923 570.523 344.458 547.292 334.766 557.667Z" stroke="#D1D5DB"/>
<path opacity="0.276596" fill-rule="evenodd" clip-rule="evenodd" d="M326.81 547.648C307.612 563.52 284.071 633.147 268.4 624.915C252.59 616.61 238.02 569.645 248.555 506.54C260.882 432.7 295.209 412.723 314.915 346.29C327.056 305.357 324.884 255.983 335.742 212.605C350.737 152.696 367.847 83.3535 387.873 54.8177C408.109 25.9843 430.647 26.333 436.654 68.8162C442.991 113.637 419.932 199.3 417.022 260.983C415.181 300.016 426.63 316.278 423.052 357.137C419.24 400.664 410.046 451.169 397.063 488.869C384.389 525.672 369.23 541.419 355.688 552.75C344.359 562.228 338.127 538.291 326.81 547.648Z" stroke="#D1D5DB"/>
<path opacity="0.297872" fill-rule="evenodd" clip-rule="evenodd" d="M319.377 537.471C297.608 551.271 267.222 618.35 251.011 608.43C234.656 598.423 222.477 549.896 238.427 487.937C257.089 415.438 295.396 399.164 321.431 334.866C337.473 295.248 338.775 245.648 353.619 203.448C374.12 145.166 397.583 77.6786 421.174 51.3058C445.011 24.658 469.172 27.4355 472.491 70.5588C475.993 116.055 444.944 199.218 437.282 260.577C432.433 299.405 443.523 316.898 436.676 357.364C429.382 400.473 415.799 449.979 399.092 486.273C382.783 521.704 365.358 535.815 349.991 545.684C337.136 553.94 332.211 529.336 319.377 537.471Z" stroke="#D1D5DB"/>
<path opacity="0.319149" fill-rule="evenodd" clip-rule="evenodd" d="M312.519 527.193C288.402 538.597 251.442 602.465 234.876 590.704C218.163 578.839 208.551 528.813 229.795 468.463C254.653 397.848 296.538 385.813 328.676 324.247C348.478 286.312 353.284 236.718 371.99 196.059C397.824 139.907 427.445 74.8542 454.367 51.0463C481.57 26.9901 507.087 32.4783 507.645 76.0943C508.234 122.11 469.46 202.035 457.075 262.709C449.238 301.104 459.833 319.887 449.756 359.701C439.022 402.115 421.154 450.241 400.874 484.768C381.076 518.475 361.56 530.676 344.528 538.854C330.28 545.695 326.736 520.47 312.519 527.193Z" stroke="#D1D5DB"/>
<path opacity="0.340426" fill-rule="evenodd" clip-rule="evenodd" d="M306.277 516.878C280.075 525.584 236.877 585.609 220.163 571.873C203.301 558.014 196.436 506.572 222.816 448.284C253.685 380.081 298.682 372.779 336.64 314.516C360.028 278.618 368.354 229.265 390.763 190.5C421.713 136.961 457.244 74.9025 487.22 54.0362C517.51 32.9523 544.083 41.4041 541.811 85.3571C539.415 131.728 493.249 207.702 476.198 267.334C465.409 305.069 475.359 325.186 462.112 364.092C448.001 405.539 425.986 451.915 402.316 484.331C379.209 515.975 357.811 526.012 339.298 532.286C323.811 537.535 321.724 511.745 306.277 516.878Z" stroke="#D1D5DB"/>
<path opacity="0.361702" fill-rule="evenodd" clip-rule="evenodd" d="M300.69 506.596C272.698 512.332 223.656 567.915 207.022 552.093C190.241 536.13 186.309 483.375 217.629 427.585C254.276 362.304 301.863 360.178 345.306 305.763C372.073 272.236 383.918 223.364 409.842 186.827C445.646 136.366 486.787 77.8342 519.503 60.257C552.559 42.4964 579.853 54.1319 574.69 98.2571C569.244 144.81 516.083 216.154 494.449 274.39C480.759 311.242 489.906 332.72 473.569 370.468C456.165 410.681 430.172 454.951 403.331 484.927C377.127 514.191 354.082 521.832 334.296 526.009C317.744 529.503 317.193 503.214 300.69 506.596Z" stroke="#D1D5DB"/>
<path opacity="0.382979" fill-rule="evenodd" clip-rule="evenodd" d="M295.787 496.424C266.331 498.95 211.896 549.533 195.588 531.539C179.135 513.385 178.326 459.445 214.35 406.569C256.502 344.699 306.103 348.135 354.644 298.079C384.553 267.237 399.902 219.086 429.122 185.094C469.477 138.149 515.881 83.6484 550.982 69.6743C586.449 55.5544 614.099 70.5567 605.99 114.68C597.436 161.232 537.741 227.308 511.633 283.801C495.113 319.55 503.287 342.397 483.958 378.743C463.368 417.463 433.597 459.285 403.831 486.519C374.774 513.106 350.342 518.143 329.515 520.052C312.091 521.649 313.152 494.934 295.787 496.424Z" stroke="#D1D5DB"/>
<path opacity="0.404255" fill-rule="evenodd" clip-rule="evenodd" d="M291.586 486.443C261.022 485.554 201.699 530.623 185.976 510.399C170.114 489.996 172.615 435.021 213.075 385.456C260.417 327.46 311.408 336.783 364.615 291.557C397.398 263.691 416.222 216.505 448.489 185.353C493.052 142.33 544.328 92.3313 581.428 82.2372C618.914 72.0377 646.53 90.5495 635.431 134.49C623.72 180.847 558.008 241.062 527.562 295.472C508.296 329.903 515.321 354.109 493.12 388.818C469.469 425.793 436.148 464.847 403.736 489.058C372.094 512.695 346.562 514.95 324.943 514.446C306.858 514.024 309.604 486.968 291.586 486.443Z" stroke="#D1D5DB"/>
<path opacity="0.425532" fill-rule="evenodd" clip-rule="evenodd" d="M288.099 476.741C256.806 472.267 193.146 511.36 178.282 488.879C163.286 466.199 169.282 410.364 213.874 364.481C266.051 310.792 317.771 326.259 375.167 286.292C410.531 261.667 432.784 215.688 467.824 187.648C516.217 148.922 571.93 103.857 610.612 97.8794C649.699 91.8391 676.869 113.96 662.741 157.525C647.837 203.488 576.679 257.298 542.055 309.297C520.146 342.201 525.841 367.733 500.903 400.579C474.336 435.57 437.723 471.555 402.967 492.493C369.037 512.933 342.708 512.257 320.565 509.221C302.042 506.681 306.548 479.378 288.099 476.741Z" stroke="#D1D5DB"/>
<path opacity="0.446809" fill-rule="evenodd" clip-rule="evenodd" d="M285.328 467.405C253.704 459.221 186.302 491.93 172.578 467.194C158.731 442.24 168.401 385.746 216.793 343.888C273.415 294.909 325.167 316.703 386.236 282.378C423.865 261.229 449.483 216.701 486.998 192.017C538.808 157.927 598.487 118.187 638.311 116.518C678.551 114.832 704.846 140.615 687.667 183.607C669.542 228.964 593.558 275.883 554.942 325.152C530.506 356.329 534.686 383.133 507.166 413.902C477.849 446.68 438.223 479.319 401.451 496.762C365.553 513.79 338.749 510.067 316.364 504.408C297.638 499.674 303.971 472.231 285.328 467.405Z" stroke="#D1D5DB"/>
<path opacity="0.468085" fill-rule="evenodd" clip-rule="evenodd" d="M283.262 458.528C251.723 446.548 181.213 472.524 168.914 445.569C156.506 418.376 170.02 361.45 221.848 323.929C282.492 280.027 333.554 308.258 397.748 279.908C437.301 262.44 466.206 219.604 505.876 198.493C560.663 169.337 623.801 135.269 664.304 138.055C705.229 140.871 730.21 170.322 709.965 212.533C688.607 257.067 608.459 296.666 566.06 342.901C539.23 372.159 541.712 400.159 511.781 428.649C479.895 458.999 437.562 488.042 399.12 501.8C361.592 515.231 334.649 508.378 312.315 500.036C293.632 493.058 301.856 465.59 283.262 458.528Z" stroke="#D1D5DB"/>
<path opacity="0.489362" fill-rule="evenodd" clip-rule="evenodd" d="M281.882 450.2C250.854 434.387 177.9 453.341 167.315 424.237C156.637 394.874 174.151 337.766 229.028 304.865C293.24 266.367 342.874 301.066 409.613 278.969C450.734 265.355 482.829 224.451 524.316 207.099C581.612 183.135 647.673 155.036 688.376 162.376C729.504 169.792 752.722 202.867 729.413 244.084C704.822 287.569 621.211 319.483 575.261 362.397C546.184 389.552 546.786 418.65 514.63 444.673C480.374 472.395 435.66 497.617 395.913 507.536C357.11 517.218 330.374 507.189 308.392 496.137C290.004 486.891 300.174 459.523 281.882 450.2Z" stroke="#D1D5DB"/>
<path opacity="0.510638" fill-rule="evenodd" clip-rule="evenodd" d="M281.157 442.515C251.074 422.874 176.366 434.585 167.782 403.433C159.122 372.004 180.778 314.991 238.294 286.955C305.594 254.15 353.051 295.266 421.731 279.647C464.048 270.023 499.22 231.288 542.168 217.849C601.485 199.29 669.908 177.408 710.321 189.349C751.156 201.415 772.163 238.019 745.805 278.022C717.996 320.226 631.655 344.157 582.407 383.478C551.243 408.359 549.79 438.432 515.61 461.815C479.198 486.725 432.446 507.933 391.772 513.893C352.065 519.71 325.888 506.496 304.565 492.736C286.728 481.226 298.893 454.094 281.157 442.515Z" stroke="#D1D5DB"/>
<path opacity="0.531915" fill-rule="evenodd" clip-rule="evenodd" d="M281.046 435.562C252.342 412.147 176.591 416.459 170.289 383.396C163.93 350.04 189.85 293.421 249.575 270.46C319.459 243.594 363.991 290.994 433.988 282.019C477.117 276.488 515.235 240.151 559.279 230.748C620.108 217.76 690.311 202.29 729.938 218.83C769.978 235.543 788.331 275.53 758.954 314.093C727.961 354.778 639.645 370.498 587.375 405.973C554.299 428.421 550.619 459.324 514.63 479.911C476.291 501.841 427.861 518.873 386.65 520.79C346.419 522.662 321.156 506.29 300.799 489.86C283.769 476.117 297.968 449.366 281.046 435.562Z" stroke="#D1D5DB"/>
<path opacity="0.553191" fill-rule="evenodd" clip-rule="evenodd" d="M281.495 429.429C254.603 402.34 178.532 399.167 174.783 364.364C171 329.252 201.284 273.35 262.771 255.636C334.716 234.909 375.583 288.38 446.26 286.154C489.809 284.782 530.724 251.069 575.487 245.787C637.307 238.491 708.692 229.574 747.035 250.659C785.779 271.963 801.043 315.135 768.695 352.03C734.567 390.954 645.054 398.305 590.055 429.702C555.252 449.57 549.188 481.136 511.616 498.786C471.592 517.589 421.855 530.312 380.503 528.144C340.135 526.026 316.14 506.562 297.054 487.533C281.088 471.614 297.349 445.399 281.495 429.429Z" stroke="#D1D5DB"/>
<path opacity="0.574468" fill-rule="evenodd" clip-rule="evenodd" d="M282.441 424.201C257.786 393.584 182.126 382.91 181.187 346.57C180.24 309.907 214.965 255.065 277.753 242.732C351.222 228.3 387.698 287.545 458.412 292.114C501.982 294.929 545.53 264.057 590.626 262.947C652.909 261.415 724.867 259.136 761.434 284.659C798.383 310.447 810.138 356.558 774.885 391.551C737.691 428.469 647.768 427.367 590.352 454.476C554.019 471.63 545.425 503.67 506.508 518.263C465.051 533.809 414.39 542.127 373.298 535.865C333.181 529.753 310.803 507.3 293.289 485.774C278.637 467.768 296.977 442.25 282.441 424.201Z" stroke="#D1D5DB"/>
<path opacity="0.595745" fill-rule="evenodd" clip-rule="evenodd" d="M283.811 419.955C261.804 386.005 187.284 367.884 189.397 330.242C191.529 292.266 230.743 238.846 294.363 231.985C368.805 223.957 400.193 288.599 470.295 299.947C513.488 306.94 559.485 279.118 604.529 282.198C666.739 286.451 738.656 290.84 772.963 320.641C807.629 350.754 815.478 399.506 777.402 432.365C737.231 467.031 647.691 457.465 588.186 480.098C550.532 494.42 539.278 526.725 499.262 538.158C456.634 550.338 405.44 554.186 365.005 543.864C325.531 533.788 305.109 508.488 289.457 484.602C276.364 464.621 296.785 439.969 283.811 419.955Z" stroke="#D1D5DB"/>
<path opacity="0.617021" fill-rule="evenodd" clip-rule="evenodd" d="M285.52 416.765C266.556 379.721 193.899 354.277 199.284 315.598C204.718 276.577 248.439 224.959 312.415 223.621C387.274 222.056 412.908 291.641 481.754 309.692C524.173 320.815 572.42 296.241 617.024 303.491C678.627 313.503 749.887 324.532 781.467 358.404C813.376 392.63 816.947 443.681 776.152 474.17C733.112 506.337 644.746 488.37 583.495 506.365C544.736 517.753 530.709 550.094 489.85 558.285C446.322 567.01 394.987 566.359 355.606 552.048C317.161 538.077 299.021 510.108 285.511 484.029C274.209 462.214 296.7 438.604 285.52 416.765Z" stroke="#D1D5DB"/>
<path opacity="0.638298" fill-rule="evenodd" clip-rule="evenodd" d="M287.476 414.695C271.926 374.838 201.841 342.265 210.696 302.845C219.63 263.075 267.842 213.651 331.695 217.848C406.41 222.758 425.669 296.756 492.624 321.373C533.878 336.541 584.159 315.403 627.939 326.767C688.404 342.462 758.398 360.046 786.801 397.732C815.501 435.811 814.451 488.771 771.061 516.66C725.283 546.083 638.874 519.851 576.233 533.072C536.593 541.438 519.702 573.569 478.258 578.455C434.109 583.66 383.028 578.514 345.088 560.323C308.05 542.564 292.503 512.138 281.397 484.065C272.107 460.581 296.643 438.192 287.476 414.695Z" stroke="#D1D5DB"/>
<path opacity="0.659574" fill-rule="evenodd" clip-rule="evenodd" d="M289.576 413.803C277.786 371.456 210.962 332.015 223.456 292.174C236.061 251.979 288.713 205.154 351.965 214.853C425.978 226.202 438.288 304.012 502.732 334.998C542.439 354.09 594.521 336.562 637.1 351.95C695.905 373.202 764.033 397.203 788.837 438.397C813.899 480.02 807.925 534.46 762.082 559.519C713.717 585.957 630.034 551.671 566.368 560.006C526.08 565.281 506.255 596.941 464.493 598.48C420.005 600.121 369.571 590.52 333.449 568.594C298.184 547.189 285.52 514.553 277.062 484.714C269.987 459.753 296.526 438.767 289.576 413.803Z" stroke="#D1D5DB"/>
<path opacity="0.680851" fill-rule="evenodd" clip-rule="evenodd" d="M291.71 414.134C283.993 369.66 221.093 323.679 237.365 283.761C253.781 243.489 310.785 199.673 372.964 214.803C445.72 232.506 450.566 313.462 511.9 350.562C549.691 373.42 603.326 359.661 644.336 378.949C700.974 405.586 766.65 435.809 787.46 480.161C808.487 524.976 797.325 580.426 749.194 602.433C698.415 625.65 618.203 583.589 553.889 586.957C513.191 589.088 490.386 620 448.575 618.173C404.033 616.227 354.634 602.245 320.69 576.767C287.553 551.895 278.036 517.326 272.45 485.976C267.776 459.75 296.259 440.354 291.71 414.134Z" stroke="#D1D5DB"/>
<path opacity="0.702128" fill-rule="evenodd" clip-rule="evenodd" d="M293.761 415.726C290.397 369.522 232.05 317.39 252.206 277.761C272.54 237.781 333.768 197.39 394.407 217.837C465.362 241.762 462.296 325.138 519.945 368.04C555.466 394.474 610.393 384.627 649.478 407.656C703.458 439.46 766.117 475.657 782.573 522.776C799.202 570.387 782.634 626.344 732.401 645.082C679.404 664.851 603.379 615.364 538.799 613.71C497.933 612.663 472.131 642.542 430.539 637.349C386.232 631.817 338.247 613.561 306.826 584.748C276.151 556.619 270.02 520.426 267.502 487.844C265.395 460.588 295.744 442.966 293.761 415.726Z" stroke="#D1D5DB"/>
<path opacity="0.723404" fill-rule="evenodd" clip-rule="evenodd" d="M295.606 418.604C296.834 371.098 243.632 313.267 267.741 274.31C292.063 235.007 357.348 198.457 415.994 224.069C484.617 254.037 473.259 339.052 526.681 387.391C559.597 417.176 615.539 411.369 652.36 437.948C703.214 474.656 762.315 516.529 774.098 565.985C786.004 615.957 763.862 671.889 711.732 687.151C656.735 703.254 585.58 646.755 521.122 640.053C480.333 635.812 451.543 664.362 410.44 655.826C366.653 646.732 320.452 624.342 291.875 592.443C263.976 561.302 261.44 523.819 262.16 490.308C262.761 462.275 294.882 446.611 295.606 418.604Z" stroke="#D1D5DB"/>
<path opacity="0.744681" fill-rule="evenodd" clip-rule="evenodd" d="M297.118 422.781C303.134 374.432 255.623 311.407 283.717 273.519C312.061 235.294 381.192 202.997 437.407 233.582C503.184 269.369 483.233 355.194 531.921 408.557C561.919 441.437 618.588 439.777 652.825 469.686C700.109 510.992 755.142 558.193 761.972 609.522C768.874 661.387 741.042 716.734 687.243 728.326C630.484 740.556 564.841 677.522 500.895 665.777C460.431 658.345 428.692 685.265 388.345 673.428C345.364 660.819 301.301 634.468 275.865 599.763C251.033 565.882 252.266 527.466 256.363 493.35C259.79 464.81 293.571 451.284 297.118 422.781Z" stroke="#D1D5DB"/>
<path opacity="0.765957" fill-rule="evenodd" clip-rule="evenodd" d="M298.164 428.256C309.12 379.546 267.798 311.885 299.869 275.473C332.225 238.737 404.952 211.098 458.314 246.427C520.754 287.765 491.992 373.535 535.478 431.459C562.272 467.149 619.366 469.726 650.72 502.713C694.021 548.272 744.508 600.409 746.154 653.116C747.817 706.373 714.234 760.559 659.014 768.298C600.755 776.464 541.218 707.429 478.176 690.676C438.282 680.074 403.664 705.059 364.337 689.988C322.442 673.933 280.856 643.822 258.831 606.619C237.329 570.299 242.472 531.33 250.054 496.947C256.396 468.185 291.704 456.972 298.164 428.256Z" stroke="#D1D5DB"/>
<path opacity="0.787234" fill-rule="evenodd" clip-rule="evenodd" d="M298.61 435.017C314.609 386.446 279.918 314.755 315.917 280.232C352.236 245.402 428.265 222.812 478.375 262.622C537.01 309.203 499.305 394.018 537.168 456C560.498 494.19 617.707 501.069 645.902 536.859C684.841 586.289 730.341 642.926 726.62 696.491C722.86 750.614 683.525 803.045 627.149 806.766C567.672 810.691 514.786 736.245 453.035 714.547C413.96 700.816 376.563 723.562 338.513 705.342C297.979 685.932 259.191 652.294 240.816 612.926C222.878 574.494 232.031 535.365 243.172 501.07C252.492 472.381 289.178 463.651 298.61 435.017Z" stroke="#D1D5DB"/>
<path opacity="0.808511" fill-rule="evenodd" clip-rule="evenodd" d="M298.321 443.037C319.417 395.122 291.74 320.046 331.575 287.827C371.764 255.323 450.759 238.159 497.243 282.151C551.633 333.626 504.945 416.567 536.812 482.062C556.447 522.418 613.452 533.644 638.239 571.937C672.473 624.822 712.589 685.483 703.369 739.364C694.052 793.807 649.026 843.883 591.78 843.436C531.384 842.965 485.636 763.745 425.563 737.196C387.549 720.395 347.506 740.601 310.985 719.338C272.079 696.687 236.387 659.781 221.87 618.604C207.698 578.406 220.924 539.528 235.661 505.683C247.99 477.372 285.885 471.284 298.321 443.037Z" stroke="#D1D5DB"/>
<path opacity="0.829787" fill-rule="evenodd" clip-rule="evenodd" d="M297.163 452.274C323.355 405.541 303.014 327.762 346.55 298.261C390.473 268.499 472.057 257.115 514.565 304.961C564.305 360.945 508.687 441.078 534.237 509.511C549.98 551.676 606.452 567.271 627.612 607.743C656.836 663.637 691.214 727.814 676.419 781.454C661.468 835.653 610.87 882.771 553.058 878.027C492.065 873.023 453.88 789.71 395.864 758.434C359.151 738.642 316.626 756.014 281.876 731.835C244.857 706.077 212.534 666.185 202.048 623.576C191.811 581.979 209.13 543.767 227.465 510.746C242.803 483.122 281.723 479.825 297.163 452.274Z" stroke="#D1D5DB"/>
<path opacity="0.851064" fill-rule="evenodd" clip-rule="evenodd" d="M295.003 462.677C326.237 417.655 313.487 337.885 360.546 311.509C408.022 284.899 491.778 279.625 529.994 330.967C574.71 391.041 510.31 467.429 529.277 538.193C540.964 581.795 596.572 601.756 613.915 644.064C637.867 702.495 666.203 769.647 645.81 822.478C625.205 875.86 569.218 919.421 511.159 910.273C449.905 900.622 419.646 813.935 364.056 778.086C328.88 755.4 284.069 769.654 251.321 742.703C216.436 713.993 187.732 671.423 181.413 627.772C175.243 585.159 196.634 548.037 218.531 516.211C236.848 489.588 276.589 489.219 295.003 462.677Z" stroke="#D1D5DB"/>
<path opacity="0.87234" fill-rule="evenodd" clip-rule="evenodd" d="M291.71 474.171C327.88 431.39 322.908 350.363 373.267 327.507C424.073 304.449 509.546 305.586 543.182 360.039C582.54 423.754 509.603 495.465 521.78 567.931C529.282 612.581 583.69 636.88 597.058 680.666C615.52 741.139 637.559 810.7 611.605 862.149C585.38 914.136 524.252 953.551 466.28 939.915C405.118 925.529 383.078 836.218 330.275 795.977C296.862 770.513 249.992 781.377 219.468 751.819C186.951 720.331 162.087 675.41 160.032 631.123C158.027 587.888 183.426 552.278 208.809 522.022C230.043 496.713 270.386 499.392 291.71 474.171Z" stroke="#D1D5DB"/>
<path opacity="0.893617" fill-rule="evenodd" clip-rule="evenodd" d="M287.158 486.676C328.103 446.658 331.025 365.127 384.42 346.171C438.289 327.047 524.987 334.86 553.792 392.017C587.498 458.898 506.365 525.015 511.602 598.536C514.829 643.836 567.697 672.418 576.966 717.311C589.768 779.312 605.308 850.693 573.886 900.189C542.137 950.202 476.175 984.9 418.638 966.718C357.935 947.535 344.337 856.375 294.667 811.954C263.237 783.844 214.565 791.063 186.472 759.079C156.544 725.007 135.71 678.081 137.981 633.569C140.198 590.116 169.497 556.438 198.254 528.122C222.31 504.434 263.02 510.268 287.158 486.676Z" stroke="#D1D5DB"/>
<path opacity="0.914894" fill-rule="evenodd" clip-rule="evenodd" d="M281.23 500.094C326.734 463.351 337.594 382.078 393.719 367.381C450.343 352.555 537.74 367.272 561.498 426.706C589.298 496.251 500.406 555.884 498.618 629.799C497.516 675.342 548.506 708.127 553.587 753.744C560.604 816.746 569.498 889.342 532.761 936.32C495.64 983.788 425.213 1013.22 368.47 990.461C308.604 966.449 303.598 874.234 257.393 825.869C228.155 795.264 177.967 798.604 152.497 764.392C125.364 727.947 108.721 679.375 115.337 635.058C121.795 591.795 154.845 560.462 186.824 534.445C213.576 512.681 254.404 521.756 281.23 500.094Z" stroke="#D1D5DB"/>
<path opacity="0.93617" fill-rule="evenodd" clip-rule="evenodd" d="M273.814 514.317C323.609 481.341 342.376 401.092 400.886 390.99C459.915 380.798 547.455 402.606 565.988 463.872C587.674 535.561 491.554 587.855 482.716 661.498C477.27 706.873 526.045 743.752 526.884 789.705C528.043 853.17 530.2 926.366 488.355 970.272C446.073 1014.64 371.611 1038.29 316.029 1010.94C257.388 982.099 261.05 889.635 218.623 837.592C191.776 804.659 140.387 803.906 117.717 767.68C93.5663 729.088 81.2419 679.244 92.1821 635.543C102.862 592.879 139.47 564.291 174.483 540.922C203.772 521.374 244.458 533.757 273.814 514.317Z" stroke="#D1D5DB"/>
<path opacity="0.957447" fill-rule="evenodd" clip-rule="evenodd" d="M264.807 529.22C318.572 500.483 345.146 422.019 405.656 416.818C466.704 411.572 553.801 440.609 566.971 503.25C582.38 576.546 479.652 620.69 463.803 693.393C454.037 738.189 500.265 779.028 496.845 824.924C492.12 888.309 487.507 961.483 440.818 1001.78C393.642 1042.5 315.63 1059.88 261.584 1027.99C204.564 994.339 216.894 902.436 178.54 847.003C154.27 811.925 102.019 806.895 82.3083 768.881C61.3102 728.385 53.3996 677.652 68.6038 634.983C83.4468 593.327 123.377 567.867 161.199 547.479C192.839 530.424 233.11 546.162 264.807 529.22Z" stroke="#D1D5DB"/>
<path opacity="0.978723" fill-rule="evenodd" clip-rule="evenodd" d="M254.116 544.671C311.482 520.615 345.687 444.687 407.779 444.662C470.422 444.635 556.47 480.995 564.177 544.541C573.194 618.897 464.566 654.133 441.807 725.233C427.783 769.041 471.139 813.679 463.477 859.124C452.894 921.888 441.534 994.414 390.321 1030.6C338.573 1067.15 257.55 1077.83 205.419 1041.44C150.419 1003.04 171.343 912.511 137.334 854.001C115.814 816.976 63.065 807.511 46.4545 767.948C28.7594 725.803 25.3233 674.572 44.6912 633.346C63.5988 593.1 106.579 571.131 146.949 554.037C180.721 539.737 220.297 558.852 254.116 544.671Z" stroke="#D1D5DB"/>
<path fill-rule="evenodd" clip-rule="evenodd" d="M241.662 560.522C302.212 541.558 343.801 468.901 407.023 474.287C470.805 479.72 555.176 523.441 557.362 587.417C559.921 662.276 446.182 687.91 416.676 756.756C398.495 799.176 438.662 847.422 426.812 892.027C410.447 953.629 392.42 1024.89 337.054 1056.47C281.111 1088.38 197.666 1091.95 147.83 1051.15C95.2519 1008.11 124.62 919.749 95.206 858.498C76.5928 819.738 23.7295 805.711 10.3415 764.852C-3.92059 721.324 -2.85559 669.989 20.5361 630.608C43.3721 592.163 89.0891 574.023 131.715 560.513C167.374 549.211 205.965 571.703 241.662 560.522Z" stroke="#D1D5DB"/>
</svg>
